<svg preserveAspectRatio="none" overflow="visible" style="display: block;" width="43" height="48" viewBox="0 0 43 48" fill="none" xmlns="http://www.w3.org/2000/svg">
<g id="privacy-48">
<path id="Vector" d="M22.584 47.832C21.9519 48.1267 20.9219 47.955 20.3048 47.902C16.7636 46.1209 13.6204 44.0048 10.7134 41.3332C4.18651 35.2033 0.775162 27.3411 0.113322 18.423C-0.0633111 16.0377 0.0133007 13.6883 0.0367098 11.2648C0.0537347 9.56005 1.46041 8.25605 3.10118 7.97616C8.81089 5.96397 14.1524 3.43442 19.445 0.535924C20.741 -0.174387 22.0775 -0.180747 23.3927 0.529563C28.8513 3.47258 34.429 5.96609 40.3154 8.00373C41.7497 8.49989 42.8989 9.46676 42.9478 11.1355C43.0117 13.2515 43.0329 15.3931 42.918 17.5537C42.4818 25.7615 39.794 33.2866 34.1311 39.3231C30.8134 42.8598 27.0871 45.7308 22.584 47.8341V47.832ZM27.4531 18.5078C27.4531 15.2235 24.7802 12.5603 21.4838 12.5603C18.1873 12.5603 15.5144 15.2235 15.5144 18.5078C15.5144 21.7922 18.1873 24.4554 21.4838 24.4554C24.7802 24.4554 27.4531 21.7922 27.4531 18.5078ZM28.7363 36.3971C31.007 36.3907 32.4307 34.2916 32.1583 32.2433C31.737 29.065 29.0917 26.3043 25.7825 26.1834C22.9479 26.0795 20.3069 26.1092 17.4467 26.1601C13.7821 26.2258 10.6794 29.3745 10.7922 32.9918C10.8496 34.8704 12.5032 36.4374 14.3354 36.4331L28.7385 36.3992L28.7363 36.3971Z" fill="black"/>
</g>
</svg>
