<svg width="48" height="48" viewBox="0 0 48 48" fill="none" xmlns="http://www.w3.org/2000/svg">
<path d="M19.7663 0.0644255C20.3752 -0.0329496 22.947 -0.0280808 23.4898 0.13537C24.1382 0.330816 24.4938 0.918545 24.5294 1.61269L24.5333 46.3364C24.5346 46.9812 24.1283 47.5835 23.5611 47.8151C22.9391 48.0697 20.0071 48.0537 19.3673 47.8144C17.6352 47.1662 18.2671 43.9486 17.6371 42.4748C17.4933 42.2717 16.0382 41.805 15.6689 41.629C15.2988 41.453 14.0311 40.6518 13.7969 40.608C13.6999 40.5899 13.6096 40.5732 13.5199 40.633C12.1136 41.5441 10.6664 44.2609 8.8327 42.7871C8.10779 42.2049 5.65801 39.6217 5.10592 38.8573C4.59275 38.1464 4.48853 37.6025 4.84933 36.7776C5.12043 36.1565 6.90005 33.8995 6.91984 33.5309C6.70151 32.9536 6.36181 32.4451 6.11776 31.879C5.8737 31.3128 5.09471 28.9716 4.74116 28.74C4.25899 28.4242 2.35536 28.3797 1.63111 28.194C0.803304 27.9819 0.175358 27.4637 0.0612459 26.5108C-0.0370356 25.6915 -0.0284607 21.3771 0.1714 20.7149C0.75911 18.7681 3.76626 19.6855 4.7781 18.8954C5.06832 18.6686 5.81368 16.4179 6.05246 15.8573C6.19823 15.5151 6.79847 14.5323 6.84135 14.3195C6.88422 14.1066 6.81694 14.0155 6.73647 13.8381C6.13491 12.5145 4.13564 10.928 4.71214 9.36653C4.89089 8.88313 8.71199 4.80729 9.16382 4.60141C10.894 3.81545 12.2726 6.49049 13.6821 7.14638C14.4275 6.85008 15.1201 6.4265 15.8476 6.08499C16.4888 5.78382 17.5943 5.65306 17.7855 4.92901C18.207 3.33136 17.6925 0.395501 19.7677 0.06373L19.7663 0.0644255ZM22.0908 9.15718C16.2348 9.42983 10.7304 13.9633 9.18163 19.9234C6.74834 29.2846 13.1848 38.0602 22.0908 38.9261V34.1269C18.3343 34.0219 14.9176 31.2293 13.6472 27.5548C11.4078 21.0815 15.6735 14.4092 22.0908 13.8868V9.15718ZM22.0908 17.8514C15.097 18.8029 15.1511 29.1497 22.0908 30.1624V17.8514Z" fill="#1A1A1A"/>
<path d="M30.9934 29.8745L46.7133 29.8667C48.4811 30.0837 48.4151 32.9484 46.5908 33.0667L31.1102 33.063C29.4459 32.9263 29.4986 30.0958 30.9934 29.8745Z" fill="#1A1A1A"/>
<path d="M30.9934 22.4079L46.7133 22.4C48.4811 22.617 48.4151 25.4818 46.5908 25.6L31.1102 25.5963C29.4459 25.4597 29.4986 22.6291 30.9934 22.4079Z" fill="#1A1A1A"/>
<path d="M30.9934 14.9412L46.7133 14.9333C48.4811 15.1504 48.4151 18.0151 46.5908 18.1333L31.1102 18.1297C29.4459 17.993 29.4986 15.1625 30.9934 14.9412Z" fill="#1A1A1A"/>
</svg>
